<svg width="87" height="42" viewBox="0 0 87 42" fill="none" xmlns="http://www.w3.org/2000/svg">
<path fill-rule="evenodd" clip-rule="evenodd" d="M0 0H29.2V31.4C29.2 33.5 28.9 35.5 27.9 37L0 0Z" fill="#E30613"/>
<path fill-rule="evenodd" clip-rule="evenodd" d="M0 0L28.2 37.9C27.4 39.2 26.1 40 24.1 40H18.4C17.1 40 16.1 40.5 15.1 41.7C14.3 40.5 13.1 39.9 11.5 39.9H7C2.2 39.9 0 37.4 0 32.1V0Z" fill="#FFED00"/>
<path fill-rule="evenodd" clip-rule="evenodd" d="M0.5 0V32.2C0.5 37.4 2.7 40 7.5 40H12C13.6 40 14.8 40.5 15.5 41.7C16.4 40.5 17.5 40 18.8 40H24.4C28.5 40 29.7 36.2 29.7 32.2V0H0.5ZM29.1 34.4V34.1L29.2 33.8V33.4V33V0.4H0.8V32.7V33.2L0.9 33.6V34V34.4L1 34.8L1.1 35.2L1.2 35.5L1.3 35.8L1.4 36.1L1.5 36.4L1.6 36.7L1.7 37L1.9 37.3L2.2 37.6L2.4 37.8L2.6 38L2.8 38.2L3 38.4L3.3 38.6L3.5 38.8L3.8 38.9L4.1 39L4.4 39.1L4.7 39.2L5 39.3L5.3 39.4L5.8 39.6H6.2H6.6H7H7.4H11.9H12.5H12.6H12.7H12.8H12.9H13H13.1H13.2H13.3L13.4 39.7L13.5 39.8L13.6 39.9L13.7 40L13.8 40.1L13.9 40.2L14 40.3L14.1 40.4L14.2 40.5L14.3 40.6H14.9L15 40.7L15.1 40.8L15.2 40.9L15.3 41L15.4 41.1L15.5 41.2L15.6 41.1L15.7 41L15.8 40.9L15.9 40.8L16 40.7L16.1 40.6L16.2 40.5L16.3 40.4L16.4 40.3L16.5 40.2L16.6 40.1L16.7 40L16.8 39.9L16.9 39.8L17 39.7L17.1 39.6H17.2H17.3H17.4H17.5H17.6H17.7H17.8H18.5H24.1H24.5H24.8L25.1 39.5L25.4 39.4L25.7 39.3L26 39.2L26.2 39.1L26.4 39L26.6 38.9L26.8 38.7L27 38.5L27.2 38.3L27.4 38.1L27.6 37.9L27.7 37.7L27.8 37.4L27.9 37.1L28 36.8L28.1 36.5L28.2 36.2L28.3 35.9L28.4 35.6L28.5 35.3L28.6 35V34.7V34.4H29.1V34.4Z" fill="#1D1D1B"/>
<path fill-rule="evenodd" clip-rule="evenodd" d="M14 25.1C12 26.5 10.3 27.7 8.29997 27.5L8.19997 27.6C8.19997 27.6 8.19997 27.7 8.19997 27.8C11.9 27.3 11.8 29.4 13.6 30C14.1 30.1 14.5 30.5 15 30.5C15.3 30.5 16 30.5 16.2 30.8C16.4 31 16.3 31.3 16.4 31.7C16.4 32.1 16.3 33 16.5 33.4C16.8 34.1 16.8 35.2 16.4 35.7C16.3 35.9 16.2 36.2 16 36.4C15.9 36.5 15.9 36.7 15.8 36.9C15.7 37.1 15.3 37.2 15.2 37C15.1 36.8 15.1 36.3 15.1 36.1C15.1 35.6 14.9 35.3 14.7 34.9C14.7 34.8 14.1 33.4 14 33.4C13.2 32.9 12.7 32.5 11.7 32.3C10.8 32.1 8.79997 31.2 7.99997 31.2C7.79997 31.2 5.79997 30.3 5.49997 30.3C4.59997 30.3 4.29997 29.9 4.29997 28.9C4.29997 27.3 5.79997 27 6.29997 25.8C7.69997 23.8 9.09997 22.6 10.4 22C10.4 21.9 10.7 21.4 10.7 21.4C10.7 21.3 11 20.3 10.9 20.3C10.5 20.3 9.39997 21.2 9.39997 21.2C9.39997 20.9 9.49997 20.5 9.69997 20.2C10.2 19.5 8.99997 20.1 8.89997 20.4C8.79997 20.6 8.39997 21 8.39997 21.3C8.19997 21.5 7.99997 22.3 7.99997 21.6C7.99997 21.3 7.39997 22.2 7.39997 22.3C7.29997 22.4 6.59997 22.8 6.79997 22.6C6.99997 22.5 7.49997 21.8 6.89997 22.1C6.59997 22.3 5.59997 22.6 5.69997 22.6C6.79997 22 5.99997 22.1 5.39997 22.4C5.29997 22.5 4.19997 22.6 4.49997 22.6C4.79997 22.6 5.69997 21.9 5.09997 22C4.89997 22.1 4.69997 22.3 4.59997 22.3C4.59997 22.3 3.99997 22.4 4.09997 22.4C4.19997 22.3 4.29997 22.3 4.29997 22.2C4.29997 22.1 4.39997 22 4.29997 22.1C4.09997 22.2 3.59997 22.4 3.79997 22.1C3.89997 22 3.69997 22.1 3.69997 22.1C3.09997 22.3 3.19997 22 3.69997 21.9C3.89997 21.8 4.29997 21.5 4.59997 21.4C5.39997 21.1 4.49997 20.5 4.19997 21.3C4.49997 20.9 4.49997 20.7 5.09997 20.5C5.49997 20.4 5.89997 19.7 5.09997 20C4.39997 19.7 4.89997 19.3 4.89997 19.3C5.09997 19.1 5.89997 19 5.69997 18.9C5.59997 18.7 5.29997 18.6 5.29997 18.6C5.39997 18.4 5.99997 18.5 6.19997 18.5C6.29997 18.5 6.79997 18.7 6.79997 18.5C6.79997 18.3 6.19997 18.3 6.09997 18.3C5.89997 18.3 6.29997 18.2 6.29997 18.2C7.19997 18.2 7.89997 18.7 8.69997 18.7C8.29997 18.4 8.19997 18 8.29997 17.6C9.69997 18.1 11.3 17.7 12.6 18C13 17.1 13.5 16.8 14.1 16.6C14.1 14.6 14.3 12.8 15.1 11.1C15.2 10.9 15 10.4 14.9 11C14.6 12.3 13.9 13.2 12.6 13.7C11.7 13.9 10.7 14.8 9.89997 15.8C9.59997 16.2 8.89997 17.7 7.69997 16.8C7.49997 16.7 7.49997 16.3 6.99997 16.1C6.59997 15.9 5.79997 15.7 5.49997 15.4C5.39997 15.3 5.19997 15.1 5.09997 15C4.89997 15 4.89997 14.8 4.79997 14.7C4.49997 14.5 4.29997 14.2 4.29997 14.1C4.09997 13.2 4.29997 12.8 4.89997 13.2C5.79997 13.7 6.79997 14.3 7.79997 13.9C8.99997 13.4 9.69997 12 10.9 10.6C12.1 9.09997 13.4 8.09997 14.3 6.89997C15.4 5.59997 16.5 5.49997 17.1 7.49997C18.1 10.5 18.6 13.6 18.8 16.7C19.1 16.9 19.3 17.2 19.5 17.6C19.5 17.3 19.9 16.7 20 16.3C20.1 15.7 20.1 14.8 19.9 14.3C19.7 13.6 19.4 12.6 19.5 11.8C19.5 11.3 19.5 12.2 19.7 11.9C19.9 11.5 19.8 10.9 19.8 10.4C19.8 10.3 19.9 9.69997 19.9 10.1C19.9 10.2 19.9 11.2 20.1 10.9C20.3 10.6 20.2 10.1 20.2 9.59997C20.2 9.39997 20.3 8.89997 20.3 9.39997V10.3C20.3 10.7 20.5 10.2 20.5 9.99997V8.99997C20.5 8.89997 20.5 8.79997 20.5 8.89997C20.5 8.99997 20.7 9.59997 20.8 9.59997C21 9.59997 20.9 8.89997 20.9 8.69997C20.9 8.89997 21.3 9.59997 21.3 9.89997C21.3 9.99997 21.5 11 21.6 10.5C21.9 9.39997 21.7 11.2 21.7 11.4C21.7 12.1 22 11.5 22.1 11.5C22.2 11.6 21.8 13 21.9 13C22.2 13 22.2 12.7 22.1 13.1C21.9 13.8 20.9 14.6 20.9 15.2C20.9 15.6 20.7 15.9 20.6 16.3C21.2 16 21.7 15.3 22.3 14.4C22.2 16.3 21.4 17.7 20 18.6C21 19.5 21.6 21 21.8 22.9C22.8 23.7 23.7 24.6 24.4 25.8C24.6 26.1 24.8 25.9 24.6 25.6C23.6 24.2 23.5 22.8 23.7 21.3C23.9 19.8 23.5 18.5 23 17.4C22.2 16.1 22.6 15.4 24.2 15.4C25.1 14 26.2 13.6 27.6 13.8C28.2 13.9 28 14 27.6 14.4C26.4 15.6 25.3 16.9 25.9 18.9C26.5 21.2 27.2 23.6 27.6 26.2C28.4 27.9 27.9 29.7 26.5 29.5C22.8 28.9 19.7 27.6 17.4 25.7C17.1 25.7 17.1 26.4 17.1 26.8C17.1 27.2 17.6 27.6 17.6 27.7C17.6 27.9 17.2 27.7 17.2 27.8C17.3 27.9 17.3 28 17.4 28.1C17.5 28.2 17.7 28.3 17.8 28.4C18 28.6 18.5 28.9 18.8 28.9C19.3 28.9 18.9 29.1 18.7 29.2C18.6 29.2 17.6 29.2 17.8 29.4C18.3 30 18.9 30 19.6 30C20 30 20.3 30.1 20.7 30.2C21.1 30.3 21.4 31 21.7 31.1C21.7 31.3 21.2 31 21.4 31.2C21.6 31.5 21.9 31.6 22.3 31.9C22.3 31.9 22.8 32.2 22.5 32.2C22.4 32.2 22 31.9 22.2 32.2C22.2 32.3 23.1 32.9 22.8 32.9C22 32.8 22.8 33.1 23.1 33.3C23.2 33.4 23.6 33.8 23.2 33.6L23 33.4C22.4 33.3 22.3 33.7 22.8 33.8C22.9 33.8 22.2 33.8 21.9 33.6L21.7 33.5C21.7 33.7 21.9 33.8 22 33.8C22.5 34 21.6 33.9 21.4 33.8C21 33.5 20.3 33.3 21.1 33.9C21.4 34.2 19.9 33.2 19.9 33.3C19.9 33.6 19.9 33.6 19.5 33.3C19.2 33.1 18.8 33 18.7 32.6C18.4 31.8 18 31.3 17.5 30.6C17.5 30.7 17.5 30.7 17.5 30.8V32C17.3 31.9 16.8 30.9 16.7 30.7C16.5 30.2 16.2 29.9 15.9 29.6C15.8 29.5 15.7 29.5 15.6 29.5C15.4 29.5 15 29.7 15.3 29.3C15.4 29.2 15.6 29.2 15.6 29.1C15.6 28.8 14.6 29.4 14.6 28.6C14.5 28.4 14.6 27.8 14.6 27.6C14.6 27.5 14.7 26.9 14.6 26.9C14.3 26.7 14.6 25.8 14.4 25.7C14.6 25.8 14 25.4 14 25.1C14 25.2 14 25.2 14 25.1C13.9 25.2 14 25.2 14 25.1Z" fill="white"/>
<path fill-rule="evenodd" clip-rule="evenodd" d="M17.4002 20.8C17.8002 22.4 17.6002 23.9 16.1002 25.4C15.7002 25.7 15.3002 25.7 14.8002 25.4C13.8002 24.2 13.3002 22.9 13.3002 21.4C13.3002 20.3 14.4002 20.3 15.0002 20.1C15.1002 20.1 15.4002 19.8 15.5002 19.8C15.5002 19.8 15.9002 20 16.0002 20.1C16.5002 20.1 17.1002 20.2 17.4002 20.8ZM15.9002 22.3V22.2H16.0002L16.1002 22.3L16.2002 22.4H16.3002V22.5V22.6H16.2002L16.0002 22.5C16.0002 22.4 15.9002 22.3 15.9002 22.3ZM14.8002 23.4C14.8002 23.3 14.8002 23.1 15.0002 23.2C15.1002 23.3 14.9002 23.5 15.1002 23.6C15.2002 23.7 15.6002 23.8 15.8002 23.6C16.0002 23.3 15.8002 23 15.8002 23.1C15.7002 23.4 15.7002 22.6 15.7002 22.6C15.7002 22.4 15.7002 21.9 15.7002 21.7C15.9002 21.2 16.7002 20.9 17.1002 21.4C17.3002 21.6 17.2002 21.9 17.2002 21.8C17.1002 21.4 16.2002 21.7 16.0002 21.8C16.0002 21.8 15.9002 22 16.0002 22C16.1002 22 16.2002 21.8 16.4002 21.8L17.2002 21.9C17.3002 22 17.2002 22.1 16.9002 22.2C16.9002 22.2 16.9002 22.3 16.8002 22.3C16.7002 22.4 16.6002 22.4 16.6002 22.4V22.5C16.7002 22.6 17.1002 22.4 17.1002 22.3C17.1002 22.3 17.2002 22.1 17.2002 22.2C17.2002 22.6 16.6002 22.7 16.3002 22.7C16.0002 22.7 16.0002 22.2 15.8002 22.8C15.8002 22.8 16.0002 23.2 16.0002 23.4C16.0002 23.6 15.5002 23.9 15.4002 23.8C15.0002 23.6 14.9002 23.8 14.8002 23.4ZM14.8002 24.7C14.8002 24.5 15.0002 24.7 15.0002 24.7C15.1002 24.8 15.5002 24.8 15.6002 24.8C15.6002 24.8 15.7002 24.7 15.8002 24.7C15.9002 24.7 15.8002 24.9 15.7002 24.9L15.5002 25C15.4002 25.1 15.1002 25 15.1002 24.9C15.0002 24.9 14.8002 24.9 14.8002 24.7ZM14.4002 24.2C14.5002 24 14.7002 24.3 14.8002 24.3C15.1002 24.3 15.5002 24.4 15.8002 24.4H16.2002C16.2002 24.4 16.3002 24.2 16.4002 24.3C16.5002 24.5 16.0002 24.6 15.9002 24.6C15.7002 24.6 15.2002 24.9 15.0002 24.7C15.0002 24.4 14.4002 24.4 14.4002 24.2ZM14.0002 22.7L13.9002 22.6C13.9002 22.5 14.1002 22.6 14.2002 22.6C14.3002 22.6 14.5002 22.6 14.5002 22.6C14.7002 22.6 14.8002 22.5 14.9002 22.3C14.9002 22.2 15.0002 22.2 15.0002 22.2C15.1002 22.2 14.9002 22.4 14.9002 22.4C14.8002 22.5 14.6002 22.6 14.5002 22.7C14.5002 22.7 14.3002 22.7 14.2002 22.7H14.0002C14.0002 22.8 14.0002 22.7 14.0002 22.7ZM13.7002 22.1C13.6002 22.1 13.6002 21.8 13.6002 21.8C13.6002 21.7 13.6002 21.5 13.7002 21.4C14.0002 21.1 14.4002 21 14.8002 21.2C14.8002 21.2 15.3002 21.5 15.2002 21.6C15.2002 21.6 15.0002 21.5 15.0002 21.4C14.9002 21.2 14.3002 21.2 14.1002 21.3C14.0002 21.4 13.9002 21.7 14.0002 21.6C14.3002 21.4 14.8002 21.6 15.1002 21.8C15.4002 22 15.0002 22.2 14.9002 22.3C14.8002 22.4 14.3002 22.2 14.2002 22.2C14.1002 22.2 14.2002 21.9 14.1002 21.9C13.8002 21.9 13.9002 22.2 13.7002 22.1ZM17.0002 25.6C19.2002 27.5 22.0002 28.8 25.8002 29.4C27.1002 29.6 27.6002 28.3 26.9002 27.3C26.6002 24.8 26.0002 22.2 25.2002 19.7C24.5002 17.4 25.3002 16 26.6002 14.9C27.0002 14.5 27.2002 14.4 27.1002 14.3C26.9002 14.2 26.7002 14.3 26.5002 14.5C25.9002 14.2 25.4002 14.6 24.8002 15C24.7002 15.1 24.7002 15.3 24.5002 15.5C24.3002 15.7 24.0002 15.9 23.8002 16.1C23.0002 16.1 22.7002 16.4 22.9002 17C23.6002 18.2 23.8002 19.7 23.7002 21.3C23.1002 24.4 24.5002 24.8 24.6002 25.6C24.8002 27.4 23.6002 26.2 22.8002 24.8C22.4002 24.2 21.9002 24 21.7002 24C21.2002 24 20.2002 23.3 19.9002 23.4C19.8002 23.4 18.5002 22.3 18.5002 23.1C18.5002 24.6 17.4002 24.6 17.0002 25.6ZM19.3002 19.3C19.6002 19.3 19.8002 19.2 20.1002 19.5C20.4002 19.8 20.4002 20.4 20.6002 20.8C20.9002 21.4 21.1002 22.9 21.1002 23.6C21.1002 23.8 20.9002 23.5 20.9002 23.4C20.8002 23.3 20.5002 23 20.5002 22.9C20.5002 22.6 20.4002 21.4 20.3002 21.2C20.1002 20.9 20.0002 20.9 19.6002 20.9C19.5002 20.9 19.5002 20.9 19.5002 20.7C19.4002 20.2 19.5002 19.6 19.3002 19.3ZM19.6002 21.2C19.6002 21.1 19.6002 21.1 19.6002 21.2C19.9002 21.1 19.9002 21.6 19.9002 21.7C20.0002 21.9 20.0002 22.1 20.0002 22.4C20.0002 22.7 20.3002 22.9 20.3002 23.1C20.3002 23.2 20.3002 23.2 20.2002 23.2C19.9002 23.2 19.8002 22.2 19.8002 22C19.7002 21.7 19.6002 21.5 19.6002 21.2ZM19.1002 21.3V21.2C19.2002 20.7 19.3002 20.5 19.3002 20.9V21.3C19.3002 21.6 19.5002 21.9 19.6002 22.1C19.7002 22.3 19.8002 22.5 19.8002 22.7V22.9C19.7002 22.9 19.7002 22.6 19.6002 22.5C19.6002 22.2 19.4002 22.1 19.3002 21.8C19.2002 21.6 19.1002 21.5 19.1002 21.3ZM18.9002 21.6C18.9002 21.5 18.9002 21.4 19.0002 21.5C19.1002 21.5 19.0002 21.6 19.0002 21.7C19.0002 21.8 19.0002 21.9 19.0002 22C19.0002 22.1 19.2002 22.3 19.2002 22.5C19.2002 22.8 19.0002 22.3 18.9002 22.3C18.9002 22.1 18.9002 21.8 18.9002 21.6ZM18.4002 21.6C18.5002 21.7 18.5002 21.7 18.5002 21.9C18.5002 22 18.7002 22.3 18.7002 22.4C18.7002 22.4 18.8002 22.7 18.7002 22.7C18.6002 22.7 18.4002 22.3 18.4002 22.2C18.5002 22 18.4002 21.8 18.4002 21.6ZM18.0002 21.6L18.2002 21.7V21.8C18.2002 21.8 18.2002 21.8 18.2002 21.9C18.2002 22 18.2002 22 18.3002 22.1V22.2C18.3002 22.2 18.4002 22.4 18.4002 22.5C18.4002 22.6 18.3002 22.4 18.2002 22.4C18.2002 22.4 18.1002 22.3 18.1002 22.2C18.1002 22.1 18.0002 22.1 18.0002 22C18.0002 22 18.0002 21.9 17.9002 21.9C17.9002 21.8 17.9002 21.8 17.9002 21.7C18.0002 21.7 18.0002 21.7 18.0002 21.6ZM17.8002 22.8V22.6H17.9002V22.9L17.8002 22.8ZM17.8002 21.9C17.8002 21.9 17.8002 22 17.9002 22L18.0002 22.1L18.1002 22.2L18.0002 22.3C17.9002 22.3 17.9002 22.2 17.8002 22.1V22C17.7002 21.9 17.8002 21.9 17.8002 21.9ZM17.5002 23.4C17.5002 23.3 17.5002 23.1 17.7002 23.1H17.8002C17.9002 23.1 17.9002 23 18.0002 23C18.1002 23 18.1002 23.1 18.1002 23.2C18.1002 23.3 18.1002 23.3 18.0002 23.4L17.9002 23.5C17.8002 23.5 17.7002 23.5 17.7002 23.5L17.5002 23.4ZM17.3002 23.9C17.3002 23.8 17.4002 23.8 17.5002 23.8H17.6002L17.7002 23.7H17.9002V23.8C17.9002 23.9 17.8002 23.9 17.8002 23.9C17.8002 23.9 17.8002 23.9 17.7002 23.9H17.3002C17.4002 23.9 17.4002 24 17.3002 23.9ZM17.1002 24.4C17.1002 24.3 17.1002 24.3 17.2002 24.3H17.3002L17.4002 24.4C17.5002 24.4 17.6002 24.4 17.6002 24.4H17.7002V24.5C17.7002 24.6 17.6002 24.6 17.6002 24.6C17.5002 24.6 17.3002 24.6 17.3002 24.5C17.2002 24.4 17.1002 24.4 17.1002 24.4ZM16.7002 24.9C16.7002 24.8 16.8002 24.8 16.8002 24.7C16.8002 24.7 16.8002 24.7 16.8002 24.6H17.1002L17.2002 24.7C17.2002 24.8 17.2002 24.9 17.1002 24.9H16.9002C16.9002 25 16.7002 24.9 16.7002 24.9ZM16.3002 25.3C16.4002 25.3 16.4002 25.4 16.4002 25.4C16.5002 25.5 16.6002 25.4 16.7002 25.4V25.3C16.7002 25.2 16.7002 25.2 16.7002 25.2H16.5002C16.4002 25.2 16.4002 25.3 16.3002 25.3ZM17.9002 20C17.9002 19.9 18.0002 19.9 18.1002 19.9C18.2002 19.9 18.2002 20 18.2002 20.1C18.2002 20.3 18.4002 20.3 18.4002 20.5C18.4002 20.6 18.2002 20.7 18.2002 20.8C18.2002 20.9 18.3002 21 18.4002 21C18.5002 21 18.5002 20.9 18.6002 20.9C18.7002 20.9 18.7002 20.8 18.7002 21C18.7002 21.2 18.7002 21.2 18.5002 21.2C18.2002 21.4 17.7002 21 17.9002 20.6C17.9002 20.5 18.0002 20.5 18.0002 20.4C18.0002 20.2 17.9002 20.3 17.8002 20.2C17.8002 20.1 17.9002 20 17.9002 20ZM18.4002 19.4C18.4002 19.5 18.5002 19.7 18.6002 19.7C18.7002 19.8 18.7002 19.9 18.8002 20V20.4C18.8002 20.5 18.6002 20.7 18.5002 20.7C18.3002 20.8 18.5002 20.5 18.5002 20.5C18.6002 20.2 18.5002 20.2 18.5002 19.9C18.4002 19.9 18.4002 19.6 18.4002 19.4ZM16.7002 19.6C16.7002 19.5 16.7002 19.5 16.8002 19.5C16.9002 19.5 17.0002 19.5 17.1002 19.5C17.2002 19.5 17.3002 19.6 17.4002 19.7C17.5002 19.7 17.6002 19.9 17.6002 20C17.6002 20.1 17.7002 20.2 17.7002 20.3C17.7002 20.4 17.7002 20.4 17.7002 20.5C17.7002 20.6 17.7002 20.7 17.7002 20.7C17.5002 20.7 17.4002 20.7 17.4002 20.4C17.4002 20.3 17.4002 20.1 17.3002 20.1C17.2002 20 17.1002 19.8 17.0002 19.8C16.9002 19.7 16.7002 19.6 16.7002 19.6ZM17.5002 19.5C17.6002 19.3 17.5002 19.4 17.5002 19.5L17.6002 19.4C17.6002 19.4 17.6002 19.4 17.6002 19.5C17.6002 19.5 17.6002 19.5 17.6002 19.6V19.7H17.5002V19.6C17.5002 19.6 17.5002 19.6 17.5002 19.5C17.5002 19.5 17.6002 19.5 17.5002 19.5ZM17.9002 19.2C18.1002 19.1 18.0002 19.4 18.1002 19.5C18.2002 19.6 18.2002 19.6 18.3002 19.7V19.8H18.2002C18.1002 19.8 18.0002 19.6 18.0002 19.5C18.0002 19.3 18.0002 19.2 17.9002 19.2ZM18.5002 18.9C18.5002 18.9 18.5002 18.8 18.5002 18.9C18.6002 18.8 18.6002 18.8 18.7002 18.8V18.9V19.1C18.7002 19.2 18.7002 19.2 18.7002 19.3L18.8002 19.4C18.8002 19.4 18.9002 19.6 18.8002 19.6H18.6002L18.5002 19.5C18.5002 19.4 18.4002 19.3 18.4002 19.3C18.5002 19.1 18.5002 19 18.5002 18.9ZM18.5002 18C18.7002 18.1 18.5002 18.4 18.7002 18.5C18.8002 18.6 18.8002 18.7 18.8002 18.8V18.9L18.7002 18.7C18.7002 18.7 18.7002 18.6 18.6002 18.6C18.6002 18.6 18.5002 18.5 18.5002 18.4V18C18.5002 18.1 18.5002 18 18.5002 18ZM18.0002 17.3C18.2002 17.3 18.2002 17.4 18.4002 17.6C18.5002 17.8 18.4002 18.3 18.4002 18.5C18.4002 18.6 18.4002 18.8 18.4002 18.9C18.4002 19 18.3002 18.9 18.3002 18.9C18.2002 18.8 18.1002 18.5 18.1002 18.3C18.1002 18.1 18.1002 17.6 18.0002 17.3ZM16.2002 19.3C16.2002 19.2 16.4002 19.2 16.6002 19.2C16.9002 19.2 17.3002 19.3 17.5002 19.1C17.6002 19 17.6002 18.9 17.7002 18.8C17.7002 18.7 17.8002 18.2 18.0002 18.5C18.2002 18.8 17.7002 19.4 17.4002 19.4C17.2002 19.4 16.2002 19.5 16.2002 19.3ZM16.0002 18.9H16.2002V19H16.1002L16.0002 18.9H15.9002V18.8C16.0002 18.8 16.0002 18.9 16.0002 18.9ZM16.7002 17C16.8002 16.8 16.8002 16.8 17.0002 16.8C17.1002 16.8 17.4002 16.8 17.5002 16.8L17.6002 16.9C17.7002 17 17.9002 17.2 17.9002 17.4C17.9002 17.6 18.0002 18 17.9002 18.1C17.7002 18.2 17.7002 18.1 17.8002 17.9C17.8002 17.8 17.8002 17.4 17.8002 17.4C17.8002 17.4 17.7002 17.2 17.6002 17.2C17.5002 17 17.2002 17.1 17.0002 17.1C16.9002 17.1 16.7002 17.1 16.7002 17ZM15.8002 17.6C16.0002 17.6 16.1002 17.7 16.3002 17.8C16.5002 18 16.4002 17.8 16.3002 17.7C16.3002 17.6 16.3002 17.4 16.3002 17.3C16.2002 17.2 16.2002 17.2 16.2002 17.1C16.2002 17 16.4002 17.2 16.4002 17.2C16.5002 17.3 16.6002 17.3 16.7002 17.5C16.8002 17.7 16.7002 17.9 16.9002 18C17.1002 18.1 17.1002 17.9 17.2002 17.9C17.5002 18.1 17.5002 18.7 17.2002 18.8C17.0002 18.9 16.7002 18.9 17.0002 18.6C17.2002 18.5 17.0002 18.2 16.9002 18.1C16.5002 18 16.2002 18.2 15.9002 17.9C15.7002 17.7 16.0002 17.8 15.8002 17.6C15.9002 17.6 15.8002 17.6 15.8002 17.5C15.8002 17.7 15.8002 17.6 15.8002 17.6ZM15.7002 18.5C15.8002 18.4 15.9002 18.5 16.0002 18.4C16.1002 18.3 16.4002 18.3 16.5002 18.3C16.6002 18.3 16.6002 18.3 16.7002 18.4C16.8002 18.5 16.9002 18.4 16.9002 18.6C16.9002 18.7 16.2002 18.7 16.1002 18.7C16.0002 18.7 15.9002 18.7 15.9002 18.6C15.9002 18.6 15.8002 18.6 15.7002 18.6C15.8002 18.6 15.7002 18.5 15.7002 18.5ZM13.6002 18.9C13.5002 18.4 15.0002 18.4 15.3002 18.6C15.5002 18.7 15.6002 19 15.8002 19.2C16.0002 19.5 16.7002 19.6 16.8002 19.9C16.8002 20.1 16.2002 19.8 16.1002 19.7C15.9002 19.5 15.3002 18.8 15.0002 18.8C14.6002 18.6 14.1002 18.9 13.6002 18.9ZM14.6002 18.2C14.6002 18.1 15.0002 17.9 15.1002 17.8C15.4002 17.5 15.5002 16.9 15.8002 16.6C15.9002 16.4 16.5002 16.4 16.6002 16.6C16.8002 16.9 16.3002 16.8 16.2002 16.8C15.9002 16.8 15.6002 17.6 15.5002 18C15.5002 18.3 14.7002 18.4 14.6002 18.2ZM13.6002 18.5V18.4H13.8002H13.9002C13.9002 18.5 13.8002 18.5 13.7002 18.5H13.6002ZM14.0002 18V17.9H14.1002C14.1002 18 14.1002 18.1 14.2002 18.1C14.2002 18.1 14.3002 18.2 14.3002 18.3C14.3002 18.4 14.2002 18.4 14.2002 18.4C14.1002 18.4 14.0002 18.4 14.0002 18.3C14.1002 18.2 14.1002 18.1 14.0002 18C14.0002 18 14.0002 18.1 14.0002 18ZM14.4002 17.9C14.4002 17.7 14.6002 17.7 14.7002 17.7H14.8002C14.8002 17.8 14.7002 17.9 14.7002 17.9L14.6002 18L14.4002 18.1C14.4002 18.1 14.4002 18 14.4002 17.9C14.4002 17.9 14.4002 18 14.4002 17.9ZM14.4002 17.2C14.5002 17.2 14.6002 17.3 14.7002 17.3C14.7002 17.3 14.7002 17.4 14.8002 17.4H14.9002C14.9002 17.4 15.0002 17.4 15.0002 17.3C15.0002 17.2 15.1002 17.2 15.1002 17.2H15.2002L15.3002 17.3C15.3002 17.4 15.3002 17.5 15.2002 17.6C15.2002 17.6 15.1002 17.6 15.1002 17.7C15.0002 17.7 14.7002 17.7 14.7002 17.7L14.6002 17.6C14.4002 17.4 14.4002 17.3 14.4002 17.2ZM14.8002 16.7C14.4002 16.7 14.1002 17.7 13.9002 18C13.7002 18.3 13.5002 18.3 13.3002 18.4C13.2002 18.5 12.7002 18.3 12.9002 18.3C13.0002 18.3 14.0002 17.5 13.5002 17.5C12.7002 17.5 12.2002 18.9 13.3002 19.1C13.5002 19.1 13.7002 19.1 13.9002 19.1C14.6002 19.1 13.9002 19.4 13.7002 19.4C13.1002 19.4 12.4002 19.7 12.4002 18.7C12.4002 18 12.6002 17.8 13.0002 17.4C13.3002 17.1 13.7002 17.3 14.0002 17.2C14.1002 17.1 14.2002 16.7 14.4002 16.6C14.8002 16.5 15.4002 16.5 15.4002 17.1C15.3002 17.1 15.0002 16.7 14.8002 16.7ZM14.9002 19.7H15.0002C14.9002 19.7 14.9002 19.7 14.9002 19.7C14.8002 19.7 14.8002 19.6 14.8002 19.6V19.4C14.8002 19.3 14.9002 19.1 15.0002 19.1C15.1002 19.1 15.2002 19.1 15.3002 19.1C15.4002 19.2 15.4002 19.2 15.4002 19.4C15.4002 19.5 15.3002 19.5 15.3002 19.5C15.2002 19.5 15.1002 19.5 15.1002 19.5L15.0002 19.6L14.9002 19.7ZM13.3002 20.1C13.3002 20.3 13.3002 20.8 13.1002 20.8C12.9002 20.8 12.8002 20.6 12.8002 20.4C12.8002 19.9 13.1002 19.7 13.4002 19.6C13.6002 19.5 13.7002 19.4 14.0002 19.4C14.1002 19.4 14.9002 19.2 14.6002 19.6C14.6002 19.6 14.5002 19.6 14.4002 19.6C14.4002 19.6 14.4002 19.7 14.4002 19.8C14.2002 19.9 14.0002 19.9 13.8002 19.9C13.6002 19.9 14.2002 19.7 13.9002 19.7C13.6002 19.7 13.3002 20 13.3002 20.1ZM12.3002 19.5C12.3002 19.4 12.3002 19.4 12.4002 19.4C12.5002 19.4 12.5002 19.5 12.5002 19.6C12.5002 19.7 12.6002 19.7 12.6002 19.7C12.6002 19.7 12.8002 19.8 12.7002 19.9L12.6002 20V20.1C12.6002 20.2 12.5002 20 12.5002 20C12.5002 20 12.4002 19.9 12.4002 19.8C12.4002 19.7 12.3002 19.6 12.3002 19.6C12.4002 19.6 12.4002 19.5 12.3002 19.5ZM12.3002 20C12.3002 20 12.2002 19.7 12.3002 19.7C12.5002 19.7 12.5002 19.9 12.5002 20C12.5002 20.1 12.7002 20.2 12.7002 20.3V20.5C12.5002 20.6 12.3002 20.1 12.3002 20ZM12.0002 20V19.8C12.2002 19.8 12.1002 20 12.1002 20.1C12.1002 20.4 12.3002 20.7 12.6002 20.8L12.9002 20.9C13.0002 20.9 13.1002 20.9 13.1002 21C13.1002 21.4 12.5002 21.2 12.3002 20.9C12.3002 20.8 12.1002 20.6 12.0002 20.4C12.0002 20.3 12.0002 20.2 12.0002 20ZM11.9002 20C11.8002 19.8 11.8002 19.6 11.8002 19.4V18.9C11.8002 18.8 11.8002 18.6 11.8002 18.5C11.8002 18.5 11.8002 18.4 11.9002 18.4C11.9002 18.4 11.9002 18.4 12.0002 18.4L12.2002 18.5C12.2002 18.6 12.2002 18.7 12.2002 18.8C12.2002 18.9 12.3002 19 12.3002 19C12.3002 19 12.5002 19.2 12.3002 19.2C12.3002 19.2 12.2002 19 12.1002 19.1C11.8002 19.4 11.9002 19.7 11.9002 20ZM10.2002 21.1C10.2002 20.6 10.5002 20 10.7002 19.6C10.7002 19.5 10.9002 19.3 11.0002 19.3C11.0002 19.2 11.6002 19.3 11.6002 19.4C11.6002 19.5 11.6002 19.7 11.6002 19.8C11.6002 19.9 11.7002 20.4 11.6002 20.5L11.3002 20.7C11.1002 20.8 11.0002 21 10.8002 21.1C10.8002 21.1 10.2002 21.1 10.2002 21.1ZM7.90017 18C8.40017 18.3 9.10017 18.3 9.70017 18.3C10.1002 18.3 10.7002 18.2 11.1002 18.3C11.2002 18.3 11.4002 18.4 11.5002 18.5C11.8002 18.9 11.5002 18.7 11.3002 18.7C10.7002 18.6 10.0002 18.5 9.40017 18.5C8.80017 18.5 7.90017 18.7 7.90017 18ZM12.1002 12C12.2002 11.8 12.3002 11.7 12.4002 11.6C12.6002 11.4 12.8002 11 13.0002 10.8C13.1002 10.7 13.3002 10.3 13.5002 10.3C13.7002 10.3 13.4002 10.8 13.4002 10.8C13.3002 10.9 13.2002 11.1 13.2002 11.2C13.2002 11.3 13.0002 11.4 12.9002 11.5C12.8002 11.6 12.6002 11.8 12.5002 11.8C12.4002 11.9 12.2002 12.2 12.1002 12ZM7.80016 15.7C7.90016 15.6 8.00017 15.6 8.20017 15.6C8.30017 15.6 8.30017 15.5 8.40017 15.4C8.40017 15.4 8.70016 14.9 8.80016 15C8.80016 15.1 8.50017 15.7 8.40017 15.7C8.30017 15.8 8.20017 15.8 8.00017 15.8C7.90017 15.8 7.80016 15.8 7.80016 15.7ZM8.70017 13.5C10.0002 11.7 11.4002 10 13.1002 8.50001C13.4002 8.10001 13.7002 7.90001 14.0002 7.50001C15.0002 6.00001 16.1002 6.30001 16.6002 8.90001C17.5002 11.2 17.8002 13.8 17.8002 16.4C17.6002 15.9 17.4002 16.5 17.2002 16.3C16.7002 15.9 16.0002 15.7 15.7002 16.3C15.2002 15.8 14.6002 15.8 14.1002 16.3C14.1002 14.3 14.6002 12.6 15.1002 11.2C15.5002 10.2 14.5002 9.80001 14.2002 10.6C12.8002 14.3 10.9002 13.2 9.60016 15.1C9.30016 15.5 8.70016 16.8 8.30016 16.8C7.50016 16.8 7.30016 16.3 6.80016 15.7C6.40016 15.6 6.20017 15.4 5.90017 15.4C5.70017 15.4 5.30016 15.2 5.10016 15.1C4.80016 14.8 4.70016 14.5 4.60016 14.2C4.50016 14 4.20017 13.9 4.10017 13.8C4.10017 13.4 4.60017 14 4.80017 14C5.50017 14.3 6.10017 14.6 7.00017 14.6C7.40017 14.6 7.60017 14.6 8.00017 14.4C7.90017 14.2 8.70017 13.6 8.70017 13.5ZM19.1002 18.5C19.2002 18.4 19.5002 18.2 19.6002 18C19.8002 17.8 19.9002 17.7 20.1002 17.5C20.4002 17.3 20.9002 16.7 21.1002 16.3C21.1002 16.2 21.5002 15.6 21.4002 16C21.4002 16.3 21.0002 16.9 20.8002 17.1C20.5002 17.4 20.1002 18 19.7002 18.2C19.5002 18.4 19.3002 18.6 19.1002 18.5ZM19.0002 18.2C19.0002 18 19.4002 17.7 19.4002 17.5C19.5002 17.3 19.5002 17 19.6002 16.8V16.6C19.6002 16.5 19.6002 16.8 19.6002 16.8C19.6002 17.1 19.6002 17.5 19.5002 17.7C19.5002 17.9 19.0002 18.5 19.0002 18.2ZM21.4002 13.3C21.4002 13.3 21.4002 13.4 21.4002 13.3V13.4V13.5V13.6C21.4002 13.7 21.4002 13.7 21.3002 13.7L21.2002 13.9V14V14.1V14.2V14.1V14V13.9V13.8V13.7V13.6V13.5V13.4V13.3V13.2C21.2002 13.1 21.2002 13.1 21.3002 13.1C21.3002 13.1 21.3002 13.1 21.4002 13.1C21.4002 13.3 21.4002 13.3 21.4002 13.3ZM21.0002 13.6C20.9002 13.5 20.9002 13.6 21.0002 13.6V13.7V13.8V13.9V14C21.0002 14.1 20.9002 14.1 20.9002 14.2V14.3H20.8002V14.2V14.1V14V13.9V13.8V13.7V13.6L20.9002 13.5H21.0002C20.9002 13.5 20.9002 13.5 21.0002 13.6ZM20.4002 13.5V13.9C20.4002 14 20.4002 14 20.4002 14V14.1V14.2H20.3002V14V13.9V13.8V13.6V13.5V13.4H20.4002C20.4002 13.4 20.4002 13.4 20.4002 13.5ZM20.4002 14.5C20.5002 14.5 20.9002 14.3 20.8002 14.7C20.7002 14.9 20.3002 15.2 20.3002 15.4C20.3002 15.7 20.3002 16.1 20.2002 16.4C20.2002 16.5 19.9002 17.2 19.9002 16.8V16.4C19.9002 16.3 20.0002 15.6 20.1002 15.5C20.1002 15.4 20.1002 15 20.1002 14.9C20.1002 14.8 19.9002 14.6 19.9002 14.5C19.9002 14.4 20.3002 14.4 20.4002 14.5ZM19.9002 13.8C20.0002 13.8 20.0002 13.8 19.9002 13.8V13.9V14V14.3H19.8002V14.2V14.1V14V13.9V13.8V13.7V13.6V13.5H19.9002V13.6V13.7V13.8ZM20.8002 12.4V12.5V12.6L20.9002 12.7V12.8V13.1V13.2V13.3V13.4H20.8002V13.3V13.2V13.1V13V12.7V12.6V12.5C20.7002 12.6 20.8002 12.5 20.8002 12.4ZM20.4002 12.3C20.4002 12.3 20.5002 12.3 20.4002 12.3L20.5002 12.4V12.5V12.6V13.3V13.4V13.5H20.4002V13.4V13.3V13.2C20.4002 13.1 20.4002 13.2 20.4002 13.1V13V12.9V12.8V12.5C20.3002 12.4 20.4002 12.3 20.4002 12.3ZM20.1002 12.2V12.3V12.8V12.9V13V13.1V13.2H20.0002V13.1V13V12.9V12.8V12.7V12.6V12.5V12.4C20.0002 12.3 20.0002 12.3 20.0002 12.3V12.2C20.0002 12.2 20.1002 12.2 20.1002 12.2ZM19.6002 12.5L19.7002 12.6V12.7C19.7002 12.8 19.7002 12.8 19.7002 12.8V12.9C19.7002 13 19.7002 13 19.7002 13.1V13.2V13.3V13.4H19.6002V13.3V13.2V13.1V12.7V12.6C19.6002 12.5 19.6002 12.5 19.6002 12.5C19.4002 12.5 19.5002 12.5 19.6002 12.5ZM21.0002 11.4C21.1002 11.5 21.1002 11.8 21.1002 12C21.1002 12.1 21.2002 12.1 21.2002 12.1C21.2002 12.2 21.2002 12.2 21.2002 12.3C21.2002 12.4 21.2002 12.5 21.2002 12.6C21.2002 12.6 21.2002 13 21.1002 13C21.1002 13 21.0002 12.9 21.0002 12.8V12.7C21.0002 12.5 20.8002 12.3 20.8002 12.2V11.9C20.8002 11.7 20.9002 11.5 21.0002 11.4ZM20.5002 11.1C20.5002 11.2 20.5002 11.2 20.5002 11.1L20.6002 11.2V11.3L20.7002 11.4V11.5V12.1H20.6002L20.5002 12V11.9V11.8V11.7V11.5C20.5002 11.4 20.5002 11.4 20.5002 11.4V11.3V11.1ZM19.5002 11.3H19.6002V11.4V11.5C19.6002 11.6 19.6002 11.6 19.6002 11.6V11.7V11.9V12V12.1V12V11.9V11.8V11.7V11.6V11.5V11.4C19.6002 11.3 19.6002 11.3 19.6002 11.3V11.2V11.3H19.5002V11.3ZM20.1002 11.2C20.1002 11.2 20.2002 11.2 20.1002 11.2L20.2002 11.3V11.4V11.5V12V12.1V12.2V12.1V12V11.9V11.7V11.6V11.5C20.0002 11.3 20.0002 11.3 20.1002 11.2ZM20.6002 10.1L20.7002 10.2V10.3C20.7002 10.4 20.7002 10.4 20.7002 10.4V11.1V11H20.6002V10.9V10.8V10.5V10.3V10.1ZM20.8002 33.2C20.8002 33.2 20.7002 33.3 20.8002 33.2C20.8002 33.3 20.8002 33.3 20.9002 33.3V33.4L21.0002 33.5H21.1002V33.4C21.1002 33.4 21.1002 33.4 21.1002 33.3V33.2H20.9002H20.8002ZM20.0002 32.8C20.0002 32.7 20.1002 32.7 20.2002 32.7L20.3002 32.8C20.3002 32.8 20.5002 33 20.5002 33.1C20.5002 33.2 20.5002 33.3 20.5002 33.3C20.4002 33.3 20.3002 33.3 20.3002 33.3C20.3002 33.1 20.0002 32.9 20.0002 32.8ZM19.2002 32.3C19.2002 32.4 19.3002 32.6 19.4002 32.7V32.8C19.4002 32.8 19.5002 32.9 19.5002 33C19.5002 33 19.5002 33 19.5002 33.1C19.5002 33.2 19.6002 33.3 19.6002 33.3C19.6002 33.4 19.8002 33.5 19.9002 33.5C20.0002 33.5 20.0002 33.4 20.0002 33.4C20.0002 33.2 19.7002 33.2 19.6002 33.1V33C19.6002 32.9 19.4002 32.7 19.4002 32.6C19.4002 32.5 19.3002 32.5 19.3002 32.4L19.2002 32.3C19.2002 32.3 19.1002 32.3 19.0002 32.3C19.2002 32.1 19.2002 32.3 19.2002 32.3ZM19.0002 33L18.8002 32.8V32.6C18.8002 32.6 18.9002 32.6 19.0002 32.6C19.1002 32.6 19.2002 32.8 19.3002 32.9C19.4002 33 19.4002 33.1 19.4002 33.2C19.4002 33.3 19.4002 33.3 19.3002 33.3L19.0002 33C19.0002 33 19.1002 33.1 19.0002 33ZM21.2002 32.8C21.3002 32.8 21.4002 32.9 21.5002 32.9C21.6002 33 21.7002 33.1 21.8002 33.2V33.3C21.8002 33.4 21.6002 33.4 21.5002 33.4C21.4002 33.4 21.3002 33.1 21.2002 33.1C21.2002 33.1 21.1002 33.1 21.1002 33C21.0002 32.8 21.2002 32.8 21.2002 32.8ZM20.4002 32.4V32.6C20.4002 32.6 20.4002 32.6 20.4002 32.7L20.5002 32.8H20.8002V32.7C20.8002 32.7 20.8002 32.7 20.8002 32.6H20.7002C20.7002 32.6 20.7002 32.6 20.6002 32.6C20.5002 32.5 20.5002 32.4 20.4002 32.4ZM21.2002 32.4C21.3002 32.4 21.3002 32.5 21.3002 32.5C21.3002 32.5 21.3002 32.5 21.4002 32.5V32.6V32.7H21.2002C21.2002 32.7 21.2002 32.7 21.1002 32.6V32.5V32.4H21.2002ZM20.3002 32C20.3002 31.9 20.3002 31.9 20.3002 32C20.4002 31.9 20.5002 31.9 20.6002 31.9L20.7002 32C20.7002 32 20.9002 32.2 20.9002 32.3V32.4C20.9002 32.6 20.6002 32.3 20.6002 32.3C20.6002 32.3 20.4002 32.2 20.4002 32.1C20.5002 32.1 20.3002 32 20.3002 32ZM19.6002 32.1C19.6002 32.1 19.5002 32 19.5002 31.9H19.7002C19.8002 31.9 19.9002 32.1 20.0002 32.1C20.0002 32.1 20.2002 32.2 20.2002 32.3C20.2002 32.4 20.2002 32.4 20.1002 32.4H19.9002C19.9002 32.3 19.8002 32.3 19.6002 32.1C19.7002 32.1 19.7002 32.2 19.6002 32.1ZM20.6002 31.4C20.6002 31.4 20.5002 31.4 20.6002 31.4H20.5002C20.5002 31.4 20.5002 31.4 20.5002 31.5C20.5002 31.5 20.5002 31.5 20.5002 31.6C20.5002 31.6 20.5002 31.6 20.6002 31.6H20.8002V31.5V31.4V31.3V31.2V31.1C20.6002 31.4 20.7002 31.4 20.6002 31.4ZM19.8002 30.9C19.8002 30.9 19.7002 30.8 19.8002 30.9C19.8002 30.8 19.8002 30.8 19.9002 30.8H20.0002C20.0002 30.8 20.1002 30.8 20.1002 30.9V31V31.1H20.0002L19.9002 31L19.8002 30.9ZM19.4002 31.4H19.7002C19.8002 31.4 20.1002 31.5 20.2002 31.6V31.7C20.2002 31.7 20.4002 31.9 20.2002 31.9C20.1002 31.9 20.0002 31.9 20.0002 31.9L19.8002 31.8L19.7002 31.7C19.5002 31.6 19.4002 31.5 19.4002 31.4ZM18.6002 31.4C18.6002 31.4 18.5002 31.3 18.6002 31.2H18.7002C18.8002 31.2 18.9002 31.3 18.9002 31.3C19.0002 31.4 19.3002 31.5 19.4002 31.6C19.4002 31.7 19.4002 31.7 19.5002 31.7C19.5002 31.8 19.4002 31.8 19.3002 31.8C19.2002 31.8 19.0002 31.6 18.9002 31.5C18.9002 31.5 18.8002 31.4 18.7002 31.3C18.7002 31.5 18.6002 31.4 18.6002 31.4ZM18.3002 31.7C18.5002 31.6 18.5002 31.7 18.6002 31.8C18.6002 31.8 18.7002 31.9 18.7002 32C18.8002 32.1 18.8002 32.2 18.9002 32.3V32.4C18.9002 32.5 18.9002 32.4 18.9002 32.4C18.8002 32.4 18.7002 32.4 18.6002 32.3C18.6002 32.2 18.5002 32.2 18.5002 32.1C18.4002 32 18.3002 31.9 18.3002 31.7ZM16.7002 29.4C16.7002 29.6 17.3002 30.3 17.5002 30.5C17.6002 30.6 18.2002 31.6 18.3002 31.6C18.4002 31.6 18.5002 31.3 18.6002 31.1C18.8002 31 19.8002 31.4 19.8002 31.1C19.8002 30.8 18.7002 30.6 18.5002 30.5C17.9002 30.3 16.9002 29.9 16.7002 29.4ZM14.9002 28.6V28.5V28.4H15.0002L15.1002 28.3C15.2002 28.3 15.3002 28.4 15.3002 28.6V28.8H15.2002C15.1002 28.8 15.1002 28.7 15.1002 28.7C15.0002 28.6 15.1002 28.6 14.9002 28.6ZM15.3002 28C15.3002 27.9 15.5002 27.9 15.5002 28C15.6002 28.4 16.0002 29.3 16.3002 29.6C16.6002 29.9 16.8002 30.3 16.9002 30.8C16.9002 30.9 16.9002 31.1 16.8002 31C16.7002 30.9 16.6002 30.3 16.4002 30.2C16.2002 30 15.9002 29.5 15.7002 29.3C15.6002 29.1 15.4002 28.8 15.4002 28.6C15.5002 28.2 15.4002 28.1 15.3002 28ZM15.8002 27.9V27.8C15.8002 27.8 15.9002 27.8 15.9002 27.9C15.9002 28 15.9002 28 15.9002 28.1L16.0002 28.2C16.0002 28.3 16.0002 28.4 16.0002 28.5C15.9002 28.5 15.9002 28.3 15.9002 28.2C15.9002 28.1 15.8002 28 15.8002 27.9ZM16.1002 27.9C16.2002 27.9 16.4002 28 16.5002 28.1C16.6002 28.3 16.5002 28.4 16.7002 28.6C16.8002 28.7 17.0002 28.8 17.1002 28.8C17.2002 28.8 17.7002 29.1 17.7002 29.1C17.7002 29.1 17.5002 29.1 17.4002 29.1C17.1002 29.1 16.5002 29.1 16.4002 28.7C16.5002 28.5 16.1002 28.1 16.1002 27.9ZM15.8002 27C15.8002 26.9 15.8002 26.9 15.9002 26.9C15.9002 26.9 16.0002 27 16.0002 27.1L16.1002 27.2C16.2002 27.3 16.3002 27.5 16.4002 27.6C16.4002 27.7 16.4002 27.7 16.4002 27.8C16.4002 27.9 16.4002 27.9 16.3002 27.9H16.2002C16.1002 27.9 16.1002 27.8 16.1002 27.7V27.6C16.0002 27.5 15.9002 27.5 15.9002 27.3V27.2C15.8002 27.1 15.8002 27 15.8002 27ZM15.1002 26.8C15.2002 26.8 15.2002 26.8 15.3002 26.9C15.3002 27 15.4002 27.1 15.4002 27.1C15.4002 27.2 15.4002 27.3 15.4002 27.3C15.4002 27.4 15.4002 27.4 15.4002 27.5C15.4002 27.6 15.4002 27.6 15.4002 27.6H15.3002C15.3002 27.6 15.2002 27.6 15.2002 27.5C15.2002 27.4 15.1002 27.2 15.1002 27.1C15.1002 27 15.1002 26.9 15.1002 26.8ZM14.8002 27.8V27.6C14.8002 27.5 14.7002 27.3 14.8002 27.3L14.9002 27.4L15.0002 27.6V27.8C15.0002 27.9 14.9002 28 14.8002 27.9C14.8002 27.9 14.8002 27.7 14.8002 27.8ZM15.6002 25.8C15.7002 25.8 15.9002 25.5 16.1002 25.7C16.2002 25.9 16.3002 26.1 16.3002 26.3C16.3002 26.4 16.4002 26.7 16.2002 26.7C16.1002 26.7 16.1002 26.6 16.0002 26.5C16.0002 26.4 15.9002 26.4 15.9002 26.3C15.9002 26.2 15.9002 26 15.8002 26C15.7002 26 15.6002 25.9 15.6002 25.8ZM15.1002 26.1C15.1002 26 15.2002 26 15.3002 26H15.4002C15.4002 26.1 15.5002 26.1 15.5002 26.1L15.6002 26.2V26.3C15.6002 26.4 15.6002 26.5 15.5002 26.6C15.5002 26.6 15.5002 26.7 15.5002 26.6V26.5C15.5002 26.4 15.4002 26.3 15.3002 26.2L15.2002 26.1C15.1002 26.2 15.1002 26.1 15.1002 26.1ZM14.6002 26.5V26.4H14.7002L14.6002 26.5C14.7002 26.5 14.8002 26.5 14.8002 26.6C14.8002 26.7 14.8002 26.9 14.8002 26.9C14.8002 27 14.7002 27.1 14.7002 27.1C14.7002 27.1 14.6002 27.1 14.6002 27C14.6002 26.9 14.5002 26.8 14.5002 26.7C14.6002 26.6 14.6002 26.6 14.6002 26.5ZM14.7002 25.8C14.7002 25.8 14.7002 25.7 14.7002 25.8C14.7002 25.7 14.7002 25.7 14.7002 25.7H14.9002V25.8H14.7002C14.7002 25.8 14.7002 25.9 14.7002 25.8C14.6002 25.8 14.6002 25.8 14.7002 25.8ZM14.2002 25.3C14.2002 25.2 14.3002 25.2 14.3002 25.2C14.3002 25.2 14.4002 25.3 14.5002 25.3V25.4L14.4002 25.5C14.5002 25.5 14.4002 25.4 14.2002 25.3C14.2002 25.3 14.3002 25.4 14.2002 25.3ZM13.7002 24.9L13.8002 24.8H13.9002C14.0002 24.8 14.1002 24.8 14.1002 24.9V25C14.1002 25.1 14.1002 25 14.1002 25H14.0002C13.9002 25.1 13.8002 25 13.7002 24.9C13.7002 24.9 13.8002 25 13.7002 24.9ZM13.1002 24.3C13.1002 24.2 13.3002 24.2 13.3002 24.3C13.4002 24.4 13.5002 24.3 13.6002 24.3C13.7002 24.3 13.8002 24.3 13.9002 24.4V24.6C13.9002 24.7 13.7002 24.7 13.7002 24.7L13.6002 24.6C13.6002 24.6 13.6002 24.6 13.5002 24.6C13.5002 24.6 13.5002 24.6 13.4002 24.6C13.3002 24.6 13.2002 24.6 13.2002 24.5C13.1002 24.4 13.1002 24.4 13.1002 24.3ZM12.9002 23.7C12.9002 23.6 12.9002 23.6 12.9002 23.6H13.0002C13.0002 23.6 13.0002 23.6 13.1002 23.7C13.2002 23.7 13.2002 23.8 13.3002 23.9L13.4002 24H13.5002L13.6002 24.1V24.2C13.6002 24.3 13.5002 24.3 13.4002 24.3C13.3002 24.3 13.2002 24.1 13.1002 24.1C13.0002 24.1 13.0002 24 12.9002 24C12.9002 23.8 12.9002 23.8 12.9002 23.7ZM12.6002 22.6C12.5002 22.5 12.7002 22.5 12.7002 22.5C12.8002 22.6 12.9002 22.8 13.0002 22.9C13.0002 23 13.2002 23.1 13.2002 23.2C13.2002 23.3 13.2002 23.4 13.1002 23.3C13.1002 23.2 13.1002 23.2 13.0002 23.1C13.0002 23 12.9002 23 12.9002 23C12.8002 22.9 12.7002 22.7 12.6002 22.6ZM13.0002 22.6C13.0002 22.5 13.0002 22.5 12.9002 22.4C12.9002 22.4 12.9002 22.3 12.8002 22.3V22.2V22.1C12.9002 22.1 12.9002 22.1 13.0002 22.2V22.3V22.6C13.1002 22.6 13.1002 22.7 13.0002 22.6ZM12.2002 22.5C12.2002 22.4 12.2002 22.3 12.3002 22.2C12.4002 22.1 12.4002 21.9 12.5002 21.7C12.5002 21.6 12.5002 21.4 12.6002 21.4C12.7002 21.4 12.7002 21.8 12.7002 21.9C12.7002 22.1 12.5002 22.2 12.5002 22.3C12.3002 22.6 12.3002 22.5 12.2002 22.5ZM11.9002 22.3C11.9002 22.2 11.9002 22 11.9002 22C11.9002 21.9 12.0002 21.9 12.0002 21.8C12.0002 21.7 12.0002 21.5 12.0002 21.4C12.0002 21.3 12.1002 21.2 12.1002 21.3C12.1002 21.5 12.1002 21.9 12.0002 22C12.1002 22.1 12.1002 22.1 11.9002 22.3C12.0002 22.3 12.0002 22.2 11.9002 22.3ZM11.8002 20.6C11.8002 20.5 12.0002 20.6 12.0002 20.8C12.0002 21.1 12.0002 21.5 11.9002 21.7C11.9002 21.8 11.7002 22.1 11.7002 22.2C11.7002 22.3 11.7002 22.3 11.7002 22.4C11.7002 22.5 11.4002 22.8 11.5002 22.6C11.5002 22.5 11.6002 22.4 11.6002 22.3C11.7002 22 11.8002 21.6 11.8002 21.2C11.8002 21.1 11.7002 20.7 11.8002 20.6ZM10.8002 23C10.8002 22.8 10.9002 22.7 11.0002 22.6C11.0002 22.5 11.0002 22.4 11.0002 22.3C11.1002 22.2 11.1002 22.2 11.1002 22C11.1002 21.8 11.1002 21.4 11.3002 21.2V21.1C11.3002 20.8 11.4002 21.2 11.4002 21.3C11.4002 21.7 11.2002 22.2 11.1002 22.6C11.1002 22.8 11.0002 22.8 10.9002 22.9C11.0002 23 10.8002 23.1 10.8002 23ZM10.3002 23.2C10.3002 22.9 10.5002 22.3 10.6002 21.9C10.7002 21.7 10.7002 21.5 10.7002 21.3C10.7002 21.2 11.0002 20.9 11.0002 21C11.0002 21.5 10.8002 22.1 10.7002 22.6C10.7002 22.7 10.6002 22.9 10.5002 23C10.5002 23.1 10.4002 23.1 10.4002 23.2C10.4002 23.3 10.3002 23.3 10.3002 23.2C10.3002 23.3 10.3002 23.3 10.3002 23.2ZM9.80016 22.5C9.80016 22.4 9.90017 22.2 9.90017 22.1C9.90017 22 10.1002 21.2 10.2002 21.3C10.5002 21.6 10.2002 23.6 9.70017 23.6C9.50017 23.6 9.50017 23.7 9.50017 23.5C9.60017 23.1 9.80016 22.8 9.80016 22.5ZM13.1002 24.8C12.5002 25.3 10.8002 26.3 10.0002 26.6C9.60017 26.7 7.50017 27 7.20017 27.3C6.40017 28.2 8.00017 28.2 8.40017 28.2C9.80017 28.2 10.8002 28.7 11.8002 29.7C12.8002 30.6 14.5002 30.9 15.4002 30.9C15.7002 30.9 15.4002 33.2 15.6002 33.4C15.8002 33.6 15.8002 34.7 15.6002 35C15.5002 35.1 15.1002 36.2 15.0002 36.2C14.8002 36.2 14.8002 35.6 14.8002 35.4C14.8002 34.9 14.7002 34.5 14.4002 34.1C14.2002 33 12.8002 32 10.7002 31.4C8.40017 30.8 7.00017 30.2 4.80017 29.7C2.90017 29 4.10016 27.6 5.60016 25.9C7.00016 24.4 8.10016 23 9.30016 22.2C9.30016 22.7 9.10017 23.3 8.90017 23.7C9.00017 24.1 9.10016 24.1 9.30016 24.1C10.3002 24 11.3002 22.9 12.4002 22.8C12.4002 23.7 12.7002 24.3 13.1002 24.8ZM13.6002 31.2L13.8002 31.1H14.2002C14.3002 31.1 14.4002 31.2 14.5002 31.2C14.5002 31.4 14.7002 31.6 14.7002 31.8C14.7002 31.9 14.7002 31.9 14.6002 31.9C14.6002 31.9 14.4002 31.7 14.4002 31.6C14.3002 31.5 14.2002 31.3 14.0002 31.3C14.0002 31.4 13.6002 31.4 13.6002 31.2ZM9.10016 19.9C9.10016 19.7 9.30017 19.5 9.40017 19.4C9.50017 19.3 9.70016 19.2 9.80016 19.1C10.0002 19 10.4002 18.8 10.7002 18.8C10.9002 18.8 10.9002 19 10.8002 19.1C10.5002 19.3 10.3002 19.5 9.90017 19.6C9.80017 19.6 9.60017 19.7 9.50017 19.8C9.40017 19.9 9.10016 20 9.10016 19.9ZM7.30016 19C7.40016 19.3 7.50016 19.4 7.60016 19.8C7.60016 19.8 7.60017 20.4 7.70017 20.2C7.80017 20 7.80017 19.7 7.90017 19.6C8.30017 19.2 9.00016 19.1 9.60016 19C9.70016 19 10.0002 18.8 9.70017 18.8C9.20017 18.8 8.50017 18.9 8.00017 19C7.80017 19.1 7.70017 19 7.50017 18.9C7.50017 19 7.30016 18.8 7.30016 19ZM13.4002 25.1C11.4002 26.5 9.70017 27.7 7.70017 27.5V27.6C7.70017 27.6 7.70017 27.7 7.70017 27.8C11.4002 27.3 11.3002 29.4 13.1002 30C13.6002 30.1 14.0002 30.5 14.5002 30.5C14.8002 30.5 15.5002 30.5 15.7002 30.8C15.9002 30.9 15.9002 31.2 15.9002 31.6C15.9002 32 15.8002 32.9 16.0002 33.3C16.3002 34 16.3002 35.1 15.9002 35.6C15.8002 35.8 15.7002 36.1 15.5002 36.3C15.4002 36.4 15.4002 36.6 15.3002 36.8C15.2002 37 14.8002 37.1 14.7002 36.9C14.6002 36.7 14.6002 36.2 14.6002 36C14.6002 35.5 14.4002 35.2 14.2002 34.8C14.2002 34.7 13.6002 33.3 13.5002 33.3C12.7002 32.8 12.2002 32.4 11.2002 32.2C10.3002 32 8.30017 31.1 7.50017 31.1C7.30017 31.1 5.30016 30.2 5.00016 30.2C3.90016 30 3.60017 29.6 3.60017 28.6C3.60017 27 5.10016 26.7 5.60016 25.5C7.00016 23.5 8.40017 22.3 9.70017 21.7C9.70017 21.6 10.0002 21.1 10.0002 21.1C10.0002 21 10.3002 20 10.2002 20C9.80017 20 8.70017 20.9 8.70017 20.9C8.70017 20.6 8.80017 20.2 9.00017 19.9C9.50017 19.2 8.30017 19.8 8.20017 20.1C8.10017 20.3 7.70017 20.7 7.70017 21C7.50017 21.2 7.30016 22 7.30016 21.3C7.30016 21 6.70017 21.9 6.70017 22C6.60017 22.1 5.90016 22.5 6.10016 22.3C6.30016 22.2 6.80017 21.5 6.20017 21.8C5.80017 22 4.90017 22.3 4.90017 22.3C6.00017 21.7 5.20016 21.8 4.60016 22.1C4.50016 22.2 3.40017 22.3 3.70017 22.3C4.00017 22.3 4.90017 21.6 4.30017 21.7C4.10017 21.8 3.90017 22 3.80017 22C3.80017 22 3.20017 22.1 3.30017 22.1C3.40017 22 3.50017 22 3.50017 21.9C3.50017 21.8 3.60017 21.7 3.50017 21.8C3.30017 21.9 2.80017 22.1 3.00017 21.8C3.10017 21.7 2.90017 21.8 2.90017 21.8C2.30017 22 2.40017 21.7 2.90017 21.6C3.10017 21.5 3.50017 21.2 3.80017 21.1C4.60017 20.8 3.70017 20.2 3.40017 21C3.70017 20.6 3.70017 20.4 4.30017 20.2C4.70017 20.1 5.10017 19.4 4.30017 19.7C4.10017 19.8 4.60016 19.4 4.60016 19.3C4.80016 19.1 5.60017 19 5.40017 18.9C5.10017 18.7 4.80017 18.6 4.80017 18.6C4.90017 18.4 5.50017 18.5 5.70017 18.5C5.80017 18.5 6.30016 18.7 6.30016 18.5C6.30016 18.3 5.70016 18.3 5.60016 18.3C5.40016 18.3 5.80017 18.2 5.80017 18.2C6.70017 18.2 7.40017 18.7 8.20017 18.7C7.80017 18.4 7.70016 18 7.80016 17.6C9.20016 18.1 10.8002 17.7 12.1002 18C12.5002 17.1 13.0002 16.8 13.6002 16.6C13.6002 14.6 13.8002 12.8 14.6002 11.1C14.7002 10.9 14.5002 10.4 14.4002 11C14.1002 12.3 13.4002 13.2 12.1002 13.7C11.2002 13.9 10.2002 14.8 9.40017 15.8C9.10017 16.2 8.40017 17.7 7.20017 16.8C7.00017 16.7 7.00017 16.3 6.50017 16.1C6.10017 15.9 5.30016 15.7 5.00016 15.4C4.90016 15.3 4.70016 15.1 4.60016 15C4.50016 14.8 4.50017 14.6 4.30017 14.5C4.00017 14.3 3.80017 14 3.80017 13.9C3.60017 13 3.80017 12.6 4.40017 13C5.30017 13.5 6.30016 14.1 7.30016 13.7C8.50016 13.2 9.20017 11.8 10.4002 10.4C11.6002 8.90001 12.9002 7.90001 13.8002 6.70001C14.9002 5.60001 16.0002 5.50001 16.7002 7.50001C17.7002 10.5 18.2002 13.6 18.4002 16.7C18.7002 16.9 18.9002 17.2 19.1002 17.6C19.1002 17.3 19.5002 16.7 19.6002 16.3C19.7002 15.7 19.7002 14.8 19.5002 14.3C19.3002 13.6 19.0002 12.6 19.1002 11.8C19.1002 11.3 19.1002 12.2 19.3002 11.9C19.5002 11.5 19.4002 10.9 19.4002 10.4C19.4002 10.3 19.5002 9.70001 19.5002 10.1C19.5002 10.2 19.5002 11.2 19.7002 10.9C19.9002 10.6 19.8002 10.1 19.8002 9.60001C19.8002 9.40001 19.9002 8.90001 19.9002 9.40001V10.3C19.9002 10.7 20.1002 10.2 20.1002 10V9.00001C20.1002 8.90001 20.1002 8.80001 20.1002 8.90001C20.1002 9.00001 20.3002 9.60001 20.4002 9.60001C20.6002 9.60001 20.5002 8.90001 20.5002 8.70001C20.5002 8.90001 20.9002 9.60001 20.9002 9.90001C20.9002 10 21.1002 11 21.2002 10.5C21.5002 9.40001 21.3002 11.2 21.3002 11.4C21.3002 12.1 21.6002 11.5 21.7002 11.5C21.8002 11.6 21.4002 13 21.5002 13C21.8002 13 21.8002 12.7 21.7002 13.1C21.5002 13.8 20.5002 14.6 20.5002 15.2C20.5002 15.6 20.3002 15.9 20.2002 16.3C20.8002 16 21.3002 15.3 21.9002 14.4C21.8002 16.3 21.0002 17.7 19.6002 18.6C20.6002 19.5 21.2002 21 21.4002 22.9C22.4002 23.7 23.3002 24.6 24.0002 25.8C24.2002 26.1 24.4002 25.9 24.2002 25.6C23.2002 24.2 23.1002 22.8 23.3002 21.3C23.5002 19.8 23.1002 18.5 22.6002 17.4C21.8002 16.1 22.2002 15.4 23.8002 15.4C24.7002 14 25.8002 13.6 27.2002 13.8C27.8002 13.9 27.6002 14 27.2002 14.4C26.0002 15.6 24.9002 16.9 25.5002 18.9C26.1002 21.2 26.8002 23.6 27.2002 26.2C28.0002 27.9 27.5002 29.7 26.1002 29.5C22.4002 28.9 19.3002 27.6 17.0002 25.7C16.7002 25.7 16.7002 26.4 16.7002 26.8C16.7002 27.2 17.2002 27.6 17.2002 27.7C17.2002 27.9 16.8002 27.7 16.8002 27.8C16.9002 27.9 16.9002 28 17.0002 28.1C17.1002 28.2 17.3002 28.3 17.4002 28.4C17.6002 28.6 18.1002 28.9 18.4002 28.9C18.9002 28.9 18.5002 29.1 18.3002 29.2C18.2002 29.2 17.2002 29.2 17.4002 29.4C17.9002 30 18.5002 30 19.2002 30C19.6002 30 19.9002 30.1 20.3002 30.2C20.7002 30.3 21.0002 31 21.3002 31.1C21.3002 31.3 20.8002 31 21.0002 31.2C21.2002 31.5 21.5002 31.6 21.9002 31.9C21.9002 31.9 22.4002 32.2 22.1002 32.2C22.0002 32.2 21.6002 31.9 21.8002 32.2C21.8002 32.3 22.7002 32.9 22.4002 32.9C21.6002 32.8 22.4002 33.1 22.7002 33.3C22.8002 33.4 23.2002 33.8 22.8002 33.6L22.6002 33.4C22.0002 33.3 21.9002 33.7 22.4002 33.8C22.5002 33.8 21.8002 33.8 21.5002 33.6L21.3002 33.5C21.3002 33.7 21.5002 33.8 21.6002 33.8C22.1002 34 21.2002 33.9 21.0002 33.8C20.6002 33.5 19.9002 33.3 20.7002 33.9C21.0002 34.2 19.5002 33.2 19.5002 33.3C19.5002 33.6 19.5002 33.6 19.1002 33.3C18.8002 33.1 18.4002 33 18.3002 32.6C18.0002 31.8 17.6002 31.3 17.1002 30.6C17.1002 30.7 17.1002 30.7 17.1002 30.8V32C16.9002 31.9 16.4002 30.9 16.3002 30.7C16.1002 30.2 15.8002 29.9 15.5002 29.6C15.4002 29.5 15.3002 29.5 15.2002 29.5C15.0002 29.5 14.6002 29.7 14.9002 29.3C15.0002 29.2 15.2002 29.2 15.2002 29.1C15.2002 28.8 14.2002 29.4 14.2002 28.6C14.1002 28.4 14.2002 27.8 14.2002 27.6C14.2002 27.5 14.3002 26.9 14.2002 26.9C13.9002 26.7 14.2002 25.8 14.0002 25.7C14.1002 25.8 13.5002 25.4 13.4002 25.1C13.5002 25.2 13.5002 25.2 13.4002 25.1C13.5002 25.1 13.5002 25.1 13.4002 25.1C13.4002 25.1 13.5002 25.1 13.4002 25.1ZM5.30017 21.5H5.50016C5.60016 21.5 5.80017 21.5 5.80017 21.4C5.90017 21.4 5.90017 21.3 5.90017 21.3C5.90017 21.2 5.80017 21.2 5.70017 21.2C5.60017 21.2 5.50016 21.4 5.50016 21.4C5.40016 21.4 5.40017 21.4 5.30017 21.5ZM5.30017 21.1V20.9C5.30017 20.8 5.50016 20.7 5.50016 20.7H5.60016L5.70017 20.8V21C5.80017 21.1 5.50017 21.1 5.30017 21.1ZM6.30016 21.3C6.30016 21.2 6.40017 21.1 6.40017 21V20.9L6.50017 20.8H6.60016C6.70016 20.8 6.70017 20.9 6.70017 20.9V21.1C6.70017 21.2 6.40017 21.2 6.40017 21.2C6.40017 21.3 6.30016 21.3 6.30016 21.3ZM6.00017 20.9C6.20017 20.9 6.40017 20.8 6.50017 20.7V20.6V20.5C6.50017 20.4 6.40016 20.4 6.30016 20.4C6.30016 20.4 6.30017 20.4 6.20017 20.4C6.20017 20.4 6.20016 20.4 6.10016 20.4L6.00017 20.5C6.10017 20.7 6.00017 20.7 6.00017 20.9ZM5.70017 20.4C5.70017 20.3 5.70017 20.2 5.70017 20.2C5.70017 20.1 5.90017 20 6.00017 20C6.10017 20 6.20017 20 6.20017 20.1V20.3C6.20017 20.4 6.10016 20.4 6.10016 20.4C6.00016 20.5 5.80017 20.4 5.70017 20.4ZM6.90017 20.7C6.90017 20.6 7.00017 20.6 7.00017 20.6C7.00017 20.6 7.20017 20.5 7.20017 20.4C7.30017 20.3 7.30016 20.3 7.30016 20.2C7.30016 20.1 7.20017 20 7.20017 20C7.10017 20 7.00017 20.1 6.90017 20.2C6.90017 20.3 6.80016 20.3 6.80016 20.4C6.90016 20.4 6.90017 20.7 6.90017 20.7ZM6.50017 20.1C6.50017 20 6.50017 19.9 6.50017 19.9C6.50017 19.8 6.60017 19.7 6.70017 19.7C6.80017 19.7 6.80017 19.6 6.90017 19.6C6.90017 19.6 7.20017 19.5 7.20017 19.6C7.20017 19.7 7.30017 19.8 7.20017 19.9C7.10017 19.9 7.00017 20 6.90017 20C6.90017 20 6.80016 20 6.80016 20.1C6.70016 20.1 6.50017 20.1 6.50017 20.1ZM5.50016 19.4V19.3C5.50016 19.2 5.60017 19.1 5.70017 19C5.80017 18.9 6.00016 18.8 6.10016 18.8C6.20016 18.8 6.20017 18.9 6.20017 18.9C6.20017 18.9 6.20017 19 6.20017 19.1C6.20017 19.2 5.90017 19.3 5.80017 19.3C5.70017 19.3 5.70016 19.3 5.50016 19.4C5.60016 19.3 5.60016 19.3 5.50016 19.4C5.60016 19.4 5.60016 19.4 5.50016 19.4ZM6.50017 19.5C6.50017 19.3 6.70016 19.2 6.80016 19.1C6.90016 19 7.10016 19.1 7.10016 19.1L7.20017 19.2V19.3C7.20017 19.4 7.10017 19.4 7.00017 19.5C6.80017 19.5 6.70017 19.5 6.50017 19.5ZM5.50016 19.9C5.50016 19.8 5.50016 19.7 5.60016 19.6C5.70016 19.5 5.70017 19.5 5.80017 19.4C5.90017 19.3 6.00017 19.3 6.20017 19.3C6.30017 19.3 6.30016 19.4 6.30016 19.5C6.30016 19.7 6.00017 19.8 5.90017 19.8H5.70017C5.70017 19.9 5.50016 19.9 5.50016 19.9ZM4.70017 20C4.70017 20.1 4.90017 20.1 4.90017 20.1C5.00017 20.1 5.10017 20 5.20017 20C5.30017 20 5.30017 19.9 5.40017 19.8C5.50017 19.7 5.40017 19.6 5.40017 19.5C5.40017 19.4 5.10016 19.5 5.00016 19.5C5.00016 19.5 4.90017 19.5 4.90017 19.6L4.80017 19.7C4.70017 19.8 4.70017 19.9 4.70017 20ZM4.90017 20.4C4.90017 20.2 5.00017 20 5.20017 20C5.30017 20 5.40016 19.9 5.50016 20.1C5.50016 20.2 5.50016 20.2 5.50016 20.2C5.50016 20.4 5.40017 20.4 5.20017 20.4H4.90017C4.90017 20.4 4.90017 20.5 4.90017 20.4ZM4.70017 21L4.80017 21.1H4.90017C5.00017 21.1 5.10016 21 5.10016 20.9C5.10016 20.8 5.10016 20.7 5.10016 20.7V20.6H4.90017L4.80017 20.7C4.70017 20.8 4.70017 20.9 4.70017 21ZM4.60016 21.6V21.4C4.60016 21.3 4.70017 21.3 4.70017 21.2C4.70017 21.1 4.90016 21.1 5.00016 21.1C5.10016 21.1 5.10016 21.2 5.10016 21.2C5.10016 21.4 5.00017 21.4 4.90017 21.5C4.90017 21.5 4.80017 21.5 4.70017 21.5C4.70017 21.6 4.50016 21.7 4.60016 21.6ZM4.20017 20.7V20.6V20.5C4.20017 20.4 4.30017 20.4 4.30017 20.3C4.30017 20.2 4.40017 20.2 4.40017 20.2C4.50017 20.2 4.60016 20.2 4.60016 20.3C4.60016 20.4 4.60016 20.5 4.60016 20.6C4.60016 20.7 4.40017 20.8 4.40017 20.8C4.40017 20.7 4.30017 20.7 4.20017 20.7ZM3.80017 21.5C3.80017 21.4 3.80017 21.3 3.90017 21.3C3.90017 21.3 4.00017 21.2 4.00017 21.1C4.10017 21 4.20017 21 4.30017 21C4.40017 21 4.40017 21.1 4.40017 21.2C4.40017 21.3 4.40017 21.4 4.30017 21.4C4.20017 21.5 3.90017 21.5 3.80017 21.5Z" fill="#1D1D1B"/>
<path d="M39.2562 15.8498H37.8589V7.46576H41.492C42.2372 7.46576 42.7961 7.74523 43.2619 8.11785C43.6346 8.67679 43.914 9.14257 43.914 9.88781C43.914 10.5399 43.8209 11.0057 43.5414 11.4715C43.2619 11.8441 42.8893 12.1236 42.4235 12.2167L44.1935 15.6635H42.5167L40.8399 12.3099H39.1631C39.2562 12.403 39.2562 15.8498 39.2562 15.8498ZM41.3988 11.3783C41.7714 11.3783 42.0509 11.2852 42.1441 11.0988C42.2372 11.0057 42.4235 10.7262 42.4235 10.3536V9.79466C42.4235 9.42203 42.3304 9.14257 42.1441 9.04941C42.0509 8.95625 41.5851 8.76994 41.3988 8.76994H39.2562V11.4715H41.3988V11.3783Z" fill="white"/>
<path d="M48.2926 15.943C47.92 15.943 47.3611 15.8498 47.1747 15.6635C46.8021 15.5703 46.5227 15.2909 46.2432 15.0114C45.9637 14.7319 45.8706 14.3593 45.6843 13.9867C45.5911 13.6141 45.4048 13.0551 45.4048 12.6825C45.4048 12.1236 45.4979 11.751 45.6843 11.3783C45.7774 11.0057 45.9637 10.6331 46.2432 10.3536C46.5227 10.0741 46.8021 9.79468 47.1747 9.70153C47.5474 9.60837 47.92 9.42206 48.2926 9.42206C48.8516 9.42206 49.2242 9.51521 49.4105 9.70153C49.7831 9.79468 50.0626 10.0741 50.3421 10.3536C50.6215 10.6331 50.7147 11.0057 50.901 11.3783C50.9941 11.751 50.9941 12.1236 50.9941 12.4962V13.1483H46.8021V13.2415C46.8021 13.8004 46.8953 14.173 47.1747 14.3593C47.4542 14.6388 47.8268 14.9183 48.2926 14.9183C48.6652 14.9183 48.9447 14.8251 49.3173 14.6388C49.5968 14.5456 49.8763 14.2662 49.9694 13.9867L50.7147 14.7319C50.4352 15.1046 50.1557 15.384 49.69 15.6635C49.5036 15.8498 48.9447 15.943 48.2926 15.943ZM48.2926 10.4468C48.0132 10.4468 47.92 10.4468 47.6405 10.5399C47.5474 10.6331 47.2679 10.6331 47.0816 10.9126C46.9884 11.0057 46.8021 11.192 46.8021 11.4715C46.709 11.751 46.709 11.8441 46.709 12.1236V12.2167H49.69V11.9373C49.69 11.3783 49.5968 11.0057 49.3173 10.8194C49.131 10.5399 48.7584 10.4468 48.2926 10.4468Z" fill="white"/>
<path d="M58.4462 16.3156C58.4462 16.9677 58.1668 17.4334 57.701 17.7129C57.1421 18.0855 56.3968 18.2718 55.2789 18.2718C54.72 18.2718 54.3474 18.2718 53.9748 18.1787C53.6021 18.0855 53.3227 18.0855 53.0432 17.8992C52.7637 17.8061 52.6706 17.6198 52.4843 17.3403C52.3911 17.2471 52.3911 16.9677 52.3911 16.6882C52.3911 16.3156 52.4843 16.0361 52.6706 15.943C52.7637 15.8498 53.0432 15.5703 53.4158 15.5703V15.4772C52.8569 15.384 52.7637 14.9182 52.7637 14.5456C52.7637 14.2661 52.8569 13.9867 53.1364 13.8004C53.4158 13.7072 53.6953 13.5209 53.8816 13.4277C53.509 13.3346 53.2295 13.0551 52.9501 12.6825C52.6706 12.403 52.6706 12.0304 52.6706 11.5646C52.6706 10.9125 52.95 10.4468 53.3227 9.98097C53.6953 9.60835 54.3474 9.32888 55.0926 9.32888C55.4653 9.32888 55.8379 9.32888 56.2105 9.42204C56.2105 9.14257 56.3037 8.8631 56.49 8.76995C56.5831 8.67679 56.8626 8.49048 57.1421 8.49048H58.0736V9.51519H56.7694V9.79466C57.0489 9.88782 57.3284 10.1673 57.4215 10.5399C57.5147 10.8194 57.701 11.192 57.701 11.5646C57.701 12.2167 57.4215 12.6825 57.0489 13.1483C56.6763 13.5209 56.0242 13.8004 55.2789 13.8004C54.9995 13.8004 54.72 13.8004 54.5337 13.7072C54.4405 13.7072 54.2542 13.8004 54.1611 13.9867C54.0679 14.0798 54.0679 14.2661 54.0679 14.3593C54.0679 14.4525 54.1611 14.6388 54.3474 14.7319C54.4405 14.8251 54.72 14.8251 54.9995 14.8251H56.5831C57.3284 14.8251 57.8873 14.9182 58.2599 15.384C58.3531 15.4772 58.4462 15.8498 58.4462 16.3156ZM57.1421 16.5019C57.1421 16.2224 57.0489 16.1293 56.8626 15.943C56.7694 15.8498 56.49 15.8498 56.1173 15.8498H54.0679C53.8816 15.9429 53.6953 16.2224 53.6953 16.595C53.6953 16.8745 53.7885 17.154 53.9748 17.2471C54.0679 17.3403 54.5337 17.5266 54.9995 17.5266H55.7447C56.7694 17.3403 57.1421 17.154 57.1421 16.5019ZM55.2789 12.7757C55.6516 12.7757 55.931 12.6825 56.2105 12.4962C56.49 12.403 56.49 12.1236 56.49 11.7509V11.4715C56.49 11.0988 56.3968 10.8194 56.2105 10.7262C55.931 10.6331 55.6516 10.4468 55.2789 10.4468C54.9063 10.4468 54.6269 10.5399 54.3474 10.7262C54.0679 10.8194 54.0679 11.0988 54.0679 11.4715V11.7509C54.0679 12.1236 54.1611 12.403 54.3474 12.4962C54.6269 12.5893 54.9063 12.7757 55.2789 12.7757Z" fill="white"/>
<path d="M60.4957 8.49049C60.2163 8.49049 59.9368 8.49049 59.8436 8.39734C59.7505 8.30418 59.7505 8.11787 59.7505 7.8384V7.65209C59.7505 7.37262 59.7505 7.27947 59.8436 7.09316C59.9368 7 60.1231 7 60.4957 7C60.7752 7 61.0547 7 61.1478 7.09316C61.241 7.18631 61.241 7.37262 61.241 7.65209V7.93156C61.241 8.21103 61.241 8.30418 61.1478 8.49049C61.0547 8.39734 60.7752 8.49049 60.4957 8.49049ZM59.8436 9.51521H61.1478V15.7567H59.8436V9.51521Z" fill="white"/>
<path d="M65.9918 15.943C65.6192 15.943 65.2466 15.8498 64.874 15.6635C64.5013 15.5703 64.2219 15.2909 63.9424 15.0114C63.6629 14.7319 63.5698 14.3593 63.3835 13.9867C63.2903 13.6141 63.104 13.0551 63.104 12.6825C63.104 12.1236 63.1972 11.751 63.3835 11.3783C63.4766 11.0057 63.7561 10.6331 63.9424 10.3536C64.2219 10.0741 64.5013 9.79468 64.874 9.70153C65.2466 9.60837 65.6192 9.42206 65.9918 9.42206C66.3645 9.42206 66.7371 9.51521 67.1097 9.70153C67.4823 9.79468 67.7618 10.0741 68.0413 10.3536C68.3207 10.6331 68.4139 11.0057 68.6002 11.3783C68.6934 11.751 68.8797 12.3099 68.8797 12.6825C68.8797 13.2414 68.7865 13.6141 68.6002 13.9867C68.507 14.3593 68.2276 14.7319 68.0413 15.0114C67.7618 15.2909 67.4823 15.5703 67.1097 15.6635C66.8302 15.8498 66.4576 15.943 65.9918 15.943ZM65.9918 14.8251C66.3645 14.8251 66.7371 14.7319 67.0166 14.4525C67.296 14.173 67.3892 13.8004 67.3892 13.1483V12.1236C67.3892 11.5646 67.296 11.192 67.0166 10.8194C66.7371 10.5399 66.3645 10.4468 65.9918 10.4468C65.6192 10.4468 65.2466 10.5399 64.9671 10.8194C64.6877 11.0989 64.5945 11.4715 64.5945 12.1236V13.2415C64.5945 13.8004 64.6877 14.173 64.9671 14.5456C65.1534 14.6388 65.5261 14.8251 65.9918 14.8251Z" fill="white"/>
<path d="M70.7427 15.8498V9.70153H72.0469V10.7262C72.14 10.3536 72.4195 10.0741 72.6989 9.79468C72.9784 9.51521 73.351 9.42206 73.8168 9.42206C74.4689 9.42206 74.9347 9.70153 75.4005 10.0741C75.7731 10.4468 75.9594 11.0989 75.9594 11.8441V15.8498H74.6552V12.0304C74.6552 11.0057 74.2826 10.6331 73.5374 10.6331C73.4442 10.6331 73.1647 10.6331 72.9784 10.7262C72.8853 10.7262 72.6989 10.8194 72.6058 11.0057C72.5126 11.0989 72.3263 11.2852 72.3263 11.3783C72.2332 11.4715 72.2332 11.6578 72.2332 11.9373V15.943H70.7427V15.8498Z" fill="white"/>
<path d="M80.6173 15.943C80.2447 15.943 79.6858 15.8498 79.4994 15.6635C79.1268 15.5703 78.8474 15.2909 78.5679 15.0114C78.2884 14.7319 78.1953 14.3593 78.009 13.9867C77.8226 13.6141 77.7295 13.0551 77.7295 12.6825C77.7295 12.1236 77.8226 11.751 78.009 11.3783C78.1021 11.0057 78.2884 10.6331 78.5679 10.3536C78.8474 10.0741 79.1268 9.79468 79.4994 9.70153C79.8721 9.60837 80.2447 9.42206 80.6173 9.42206C81.1763 9.42206 81.5489 9.51521 81.7352 9.70153C82.1078 9.79468 82.3873 10.0741 82.6668 10.3536C82.9462 10.6331 83.0394 11.0057 83.2257 11.3783C83.3188 11.751 83.3188 12.1236 83.3188 12.4962V13.1483H79.1268V13.2415C79.1268 13.8004 79.22 14.173 79.4994 14.3593C79.7789 14.6388 80.1515 14.9183 80.6173 14.9183C80.9899 14.9183 81.2694 14.8251 81.642 14.6388C81.9215 14.5456 82.201 14.2662 82.2941 13.9867L83.0394 14.7319C82.7599 15.1046 82.4804 15.384 82.0147 15.6635C81.642 15.8498 81.1763 15.943 80.6173 15.943ZM80.6173 10.4468C80.3379 10.4468 80.2447 10.4468 79.9652 10.5399C79.8721 10.6331 79.5926 10.6331 79.4063 10.9126C79.3131 11.0057 79.1268 11.192 79.1268 11.4715C79.0337 11.751 79.0337 11.8441 79.0337 12.1236V12.2167H82.0147V11.9373C82.0147 11.3783 81.9215 11.0057 81.642 10.8194C81.4557 10.5399 81.0831 10.4468 80.6173 10.4468Z" fill="white"/>
<path d="M40.3739 32.1521C39.7219 32.1521 39.0698 32.0589 38.604 31.7795C38.045 31.5 37.6724 31.1274 37.2998 30.7547L38.2314 29.8232C38.5108 30.1958 38.8835 30.4753 39.2561 30.5684C39.6287 30.6616 40.0013 30.8479 40.3739 30.8479C40.9329 30.8479 41.3055 30.7547 41.4918 30.4753C41.7713 30.1958 41.8644 29.9163 41.8644 29.4506C41.8644 29.0779 41.7713 28.7985 41.585 28.7053C41.4918 28.6122 41.026 28.3327 40.5603 28.3327L39.815 28.2395C39.0698 28.1464 38.4177 27.8669 38.0451 27.4943C37.6724 27.1217 37.393 26.5627 37.393 25.9106C37.393 25.538 37.4861 25.2585 37.6724 24.8859C37.7656 24.6065 38.0451 24.327 38.3245 24.1407C38.604 23.8612 38.8835 23.7681 39.2561 23.5817C39.6287 23.4886 40.0013 23.4886 40.3739 23.4886C41.026 23.4886 41.4918 23.5817 42.0508 23.8612C42.6097 24.1407 42.9823 24.4201 43.1686 24.7928L42.2371 25.7243C41.9576 25.4449 41.6781 25.1654 41.4918 25.0722C41.2124 24.9791 40.8397 24.7928 40.3739 24.7928C39.815 24.7928 39.4424 24.8859 39.2561 25.0722C38.9766 25.1654 38.8835 25.6312 38.8835 26.0038C38.8835 26.3764 38.9766 26.6559 39.2561 26.749C39.5355 26.8422 39.815 27.0285 40.2808 27.1217L41.026 27.2148C41.9576 27.308 42.4234 27.5874 42.796 27.9601C43.1686 28.3327 43.4481 28.8916 43.4481 29.5437C43.4481 29.9163 43.3549 30.289 43.1686 30.5684C43.0755 30.8479 42.796 31.2205 42.5165 31.3137C42.2371 31.5931 41.9576 31.6863 41.585 31.8726C41.3055 31.9658 40.9329 32.1521 40.3739 32.1521Z" fill="white"/>
<path d="M46.0568 24.6996C45.7773 24.6996 45.4978 24.6996 45.4047 24.6065C45.3115 24.5133 45.3115 24.327 45.3115 24.0475V23.7681C45.3115 23.4886 45.3115 23.3954 45.4047 23.2091C45.4978 23.116 45.6841 23.116 46.0568 23.116C46.3362 23.116 46.6157 23.116 46.7089 23.2091C46.802 23.3023 46.802 23.4886 46.802 23.7681V24.0475C46.802 24.327 46.802 24.4201 46.7089 24.6065C46.5226 24.6065 46.2431 24.6996 46.0568 24.6996ZM45.4047 25.7243H46.7089V31.8726H45.4047V25.7243Z" fill="white"/>
<path d="M51.3666 32.1521C50.9939 32.1521 50.435 32.0589 50.2487 31.8726C49.8761 31.7795 49.5966 31.5 49.3171 31.2205C49.0377 30.9411 48.9445 30.5684 48.7582 30.1958C48.665 29.8232 48.665 29.2642 48.665 28.8916C48.665 28.3327 48.665 27.9601 48.7582 27.5874C48.8514 27.2148 49.0377 26.8422 49.3171 26.5627C49.5966 26.2833 49.8761 26.0038 50.2487 25.9106C50.6213 25.8175 50.9939 25.6312 51.3666 25.6312C52.0187 25.6312 52.4844 25.7243 52.9502 26.0038C53.3228 26.2833 53.6023 26.6559 53.8818 27.1217L52.8571 27.6806C52.7639 27.4011 52.5776 27.1217 52.2981 27.0285C52.0187 26.9353 51.7392 26.749 51.3666 26.749C50.8076 26.749 50.435 26.8422 50.3418 27.1217C50.0624 27.4011 49.9692 27.7738 49.9692 28.2395V29.3574C49.9692 29.9163 50.0624 30.289 50.3418 30.4753C50.6213 30.7547 50.9939 30.8479 51.3666 30.8479C51.7392 30.8479 52.0187 30.7547 52.2981 30.5684C52.5776 30.3821 52.6707 30.1958 52.8571 29.8232L53.8818 30.3821C53.6023 30.9411 53.3228 31.3137 52.9502 31.5C52.5776 31.9658 52.0187 32.1521 51.3666 32.1521Z" fill="white"/>
<path d="M56.3038 24.6996C56.0244 24.6996 55.7449 24.6996 55.6517 24.6065C55.5586 24.4201 55.5586 24.327 55.5586 24.0475V23.7681C55.5586 23.4886 55.5586 23.3954 55.6517 23.2091C55.7449 23.116 55.9312 23.116 56.3038 23.116C56.5833 23.116 56.8628 23.116 56.9559 23.2091C57.0491 23.3023 57.0491 23.4886 57.0491 23.7681V24.0475C57.0491 24.327 57.0491 24.4201 56.9559 24.6065C56.6765 24.6065 56.5833 24.6996 56.3038 24.6996ZM55.6517 25.7243H56.9559V31.8726H55.6517V25.7243Z" fill="white"/>
<path d="M60.4955 31.9658C60.1229 31.9658 59.7502 31.8726 59.4708 31.5932C59.1913 31.3137 59.0981 31.0342 59.0981 30.6616V23.116H60.4023V30.9411H61.3339V31.9658H60.4955Z" fill="white"/>
<path d="M63.756 24.6997C63.4765 24.6997 63.1971 24.6997 63.1039 24.6065C63.0107 24.5133 63.0107 24.327 63.0107 24.0476V23.7681C63.0107 23.4886 63.0107 23.3955 63.1039 23.2092C63.1971 23.0228 63.3834 23.116 63.756 23.116C64.0355 23.116 64.3149 23.116 64.4081 23.2092C64.5012 23.3023 64.5012 23.4886 64.5012 23.7681V24.0476C64.5012 24.327 64.5012 24.4202 64.4081 24.6065C64.2218 24.6065 64.1286 24.6997 63.756 24.6997ZM63.1039 25.7244H64.4081V31.8727H63.1039V25.7244Z" fill="white"/>
<path d="M71.3019 31.9658C70.9293 31.9658 70.6498 31.8726 70.5567 31.6863C70.4635 31.4069 70.2772 31.3137 70.184 30.9411C70.0909 31.3137 69.8114 31.5932 69.5319 31.8726C69.2525 32.1521 68.8799 32.1521 68.4141 32.1521C67.762 32.1521 67.2962 32.059 66.8304 31.5932C66.4578 31.2205 66.2715 30.8479 66.2715 30.1958C66.2715 29.5437 66.5509 29.1711 66.9236 28.7985C67.4825 28.519 68.0414 28.2396 68.8799 28.2396H69.9977V27.6806C69.9977 27.308 69.9046 27.0285 69.7182 26.7491C69.4388 26.4696 69.1593 26.4696 68.6935 26.4696C68.3209 26.4696 68.0414 26.5628 67.762 26.7491C67.4825 26.8422 67.3894 27.1217 67.1099 27.4012L66.3646 26.7491C66.6441 26.3764 66.9236 26.097 67.2962 25.8175C67.6688 25.538 68.2278 25.4449 68.6935 25.4449C69.4388 25.4449 70.0909 25.538 70.4635 26.0038C70.8361 26.4696 71.1156 26.9354 71.1156 27.6806V30.8479H71.7677V31.8726H71.2087V31.9658H71.3019ZM68.6935 31.1274C69.0662 31.1274 69.4388 31.0342 69.7182 30.8479C69.9977 30.7548 70.0909 30.4753 70.0909 30.1027V29.1711H68.973C68.0414 29.1711 67.5757 29.4506 67.5757 30.1027V30.3821C67.5757 30.6616 67.6688 30.9411 67.8551 31.0342C68.0414 31.1274 68.3209 31.1274 68.6935 31.1274Z" fill="white"/>
<path d="M73.8169 31.9658V25.8175H75.1211V26.8422C75.2142 26.4696 75.4937 26.1901 75.7732 25.9106C76.0526 25.6312 76.4253 25.538 76.891 25.538C77.5431 25.538 78.0089 25.8175 78.4747 26.1901C78.8473 26.5627 79.0336 27.2148 79.0336 27.9601V31.9658H77.7294V28.2395C77.7294 27.2148 77.3568 26.8422 76.6116 26.8422C76.5184 26.8422 76.2389 26.8422 76.0526 26.9354C75.9595 26.9354 75.7732 27.0285 75.68 27.2148C75.5869 27.308 75.4005 27.4943 75.4005 27.5875C75.3074 27.6806 75.3074 27.8669 75.3074 28.1464V32.2453H73.91V31.9658H73.8169Z" fill="white"/>
<path d="M85.7409 31.9658C85.3682 31.9658 85.0888 31.8726 84.9956 31.6863C84.9025 31.4069 84.7161 31.3137 84.623 30.9411C84.5298 31.3137 84.2504 31.5932 83.9709 31.8726C83.6914 32.1521 83.3188 32.1521 82.853 32.1521C82.2009 32.1521 81.7352 32.059 81.2694 31.5932C80.8968 31.2205 80.7104 30.8479 80.7104 30.1958C80.7104 29.5437 80.9899 29.1711 81.3625 28.7985C81.9215 28.519 82.4804 28.2396 83.3188 28.2396H84.4367V27.6806C84.4367 27.308 84.3435 27.0285 84.1572 26.7491C83.8777 26.4696 83.5983 26.4696 83.1325 26.4696C82.7599 26.4696 82.4804 26.5628 82.2009 26.7491C81.9215 26.8422 81.8283 27.1217 81.5489 27.4012L80.8036 26.7491C81.0831 26.3764 81.3625 26.097 81.7352 25.8175C82.1078 25.538 82.6667 25.4449 83.1325 25.4449C83.8777 25.4449 84.5298 25.538 84.9025 26.0038C85.2751 26.4696 85.5546 26.9354 85.5546 27.6806V30.8479H86.2998V31.8726H85.7409V31.9658ZM83.1325 31.1274C83.5051 31.1274 83.8777 31.0342 84.1572 30.8479C84.4367 30.7548 84.5298 30.4753 84.5298 30.1027V29.1711H83.412C82.4804 29.1711 82.0146 29.4506 82.0146 30.1027V30.3821C82.0146 30.6616 82.1078 30.9411 82.2941 31.0342C82.5736 31.1274 82.853 31.1274 83.1325 31.1274Z" fill="white"/>
</svg>
